<svg width="276" height="188" viewBox="0 0 276 188" fill="none" xmlns="http://www.w3.org/2000/svg">
<ellipse cx="138" cy="154.5" rx="138" ry="33.5" fill="#D90429" fill-opacity="0.24"/>
<g clip-path="url(#clip0_8_114)">
<path d="M65.4748 129.951L50.9058 124.947C49.3019 117.137 49.6615 109.06 51.9536 101.418C57.4805 114.498 74.7187 118.155 84.29 128.742C87.2494 132.067 89.4099 136.004 90.6114 140.26C91.8128 144.517 92.0243 148.985 91.2303 153.334L94.02 163.738C86.8126 162.925 79.8701 160.586 73.6708 156.882C67.4715 153.178 62.1627 148.197 58.1103 142.282C55.8704 138.941 54.0673 135.337 52.7436 131.553C59.0325 131.115 65.4748 129.951 65.4748 129.951Z" fill="#F2F2F2"/>
<path d="M164.524 11.2548V125.625L164.12 130.387C163.411 138.654 159.849 146.434 154.024 152.436C153.198 153.286 152.334 154.09 151.432 154.849C150.321 155.791 149.154 156.665 147.935 157.466C147.238 157.927 146.523 158.362 145.797 158.774C141.573 161.172 136.907 162.723 132.069 163.337H97.4023C94.6436 163.339 91.9776 162.358 89.8984 160.576C88.8692 159.695 88.0065 158.642 87.3503 157.466C86.4334 155.816 85.9539 153.966 85.9561 152.085V11.2548C85.96 8.271 87.1675 5.4105 89.3138 3.30064C91.46 1.19078 94.3699 0.00379254 97.4053 0H153.078C153.21 0 153.339 0.00287604 153.471 0.00575524C153.555 0.00863444 153.64 0.0115145 153.725 0.0201521C153.84 0.0230313 153.954 0.0316695 154.065 0.0431863C154.209 0.0518239 154.349 0.0662065 154.49 0.0834817C154.619 0.100757 154.748 0.118033 154.876 0.138187C154.903 0.141066 154.926 0.146823 154.953 0.149702C155.117 0.175615 155.281 0.204406 155.442 0.238957C155.603 0.270628 155.767 0.308059 155.925 0.348368C156.039 0.37716 156.156 0.408829 156.271 0.4405C156.274 0.4405 156.279 0.443382 156.282 0.443382C156.619 0.541275 156.953 0.65356 157.281 0.783139C157.384 0.820554 157.486 0.863759 157.586 0.906947L157.63 0.924221C157.712 0.958772 157.791 0.993321 157.87 1.03075C158.107 1.13728 158.341 1.25533 158.573 1.37914C158.953 1.58541 159.322 1.81226 159.677 2.05864C159.791 2.13636 159.902 2.21988 160.011 2.30337C160.102 2.3696 160.192 2.4387 160.28 2.51355C160.288 2.51737 160.295 2.52222 160.301 2.52795C160.312 2.53659 160.324 2.5481 160.336 2.55674C160.415 2.6172 160.491 2.68055 160.564 2.74389C160.708 2.86482 160.848 2.9915 160.986 3.12107C161.024 3.15562 161.062 3.19017 161.1 3.2276C161.138 3.26215 161.174 3.29958 161.212 3.33701C161.25 3.37156 161.285 3.40898 161.32 3.44354C161.341 3.46127 161.361 3.48052 161.379 3.50112C161.484 3.61053 161.587 3.72282 161.686 3.83511C161.812 3.97619 161.935 4.12015 162.049 4.26699C162.149 4.38791 162.243 4.50884 162.333 4.63265C162.418 4.74492 162.497 4.85723 162.577 4.97239C162.598 5.00104 162.617 5.03084 162.635 5.06165C162.717 5.1797 162.793 5.30062 162.869 5.42155C163.06 5.72674 163.233 6.04345 163.391 6.36305C163.449 6.48397 163.505 6.60202 163.558 6.72295C163.625 6.86978 163.687 7.01662 163.745 7.16346C163.769 7.21817 163.789 7.27575 163.81 7.33046C163.842 7.41395 163.871 7.49745 163.9 7.58095C163.933 7.67308 163.965 7.7681 163.994 7.86023L164.064 8.08481C164.105 8.22013 164.141 8.35257 164.176 8.4879C164.196 8.56851 164.217 8.64913 164.234 8.73263C164.372 9.32063 164.461 9.91856 164.501 10.5206C164.504 10.5955 164.51 10.6675 164.513 10.7423C164.521 10.9122 164.524 11.082 164.524 11.2548Z" fill="#3F3D56"/>
<path d="M85.1618 51.2407C84.8202 51.2403 84.4928 51.1067 84.2512 50.8693C84.0097 50.6319 83.8738 50.31 83.8734 49.9742V41.3618C83.8732 41.1953 83.9063 41.0304 83.9709 40.8766C84.0356 40.7227 84.1304 40.5828 84.2501 40.465C84.3698 40.3472 84.5119 40.2537 84.6683 40.19C84.8248 40.1262 84.9924 40.0934 85.1618 40.0934C85.3312 40.0934 85.4989 40.1262 85.6553 40.19C85.8117 40.2537 85.9539 40.3472 86.0735 40.465C86.1932 40.5828 86.2881 40.7227 86.3527 40.8766C86.4173 41.0304 86.4505 41.1953 86.4502 41.3618V49.9742C86.4498 50.3099 86.3139 50.6319 86.0724 50.8693C85.8309 51.1067 85.5034 51.2403 85.1618 51.2407Z" fill="#3F3D56"/>
<path d="M84.9042 34.5226C84.5626 34.5222 84.2351 34.3886 83.9936 34.1512C83.752 33.9138 83.6162 33.5918 83.6158 33.2561V24.6437C83.6163 24.3081 83.7523 23.9865 83.9938 23.7494C84.2354 23.5123 84.5628 23.3791 84.9042 23.3791C85.2455 23.3791 85.573 23.5123 85.8145 23.7494C86.0561 23.9865 86.192 24.3081 86.1926 24.6437V33.2561C86.1922 33.5918 86.0563 33.9138 85.8148 34.1512C85.5732 34.3886 85.2458 34.5222 84.9042 34.5226Z" fill="#3F3D56"/>
<path d="M116.539 4.18431C116.54 3.84852 116.676 3.52661 116.917 3.28917C117.159 3.05174 117.486 2.91818 117.828 2.91779H126.589C126.93 2.91779 127.258 3.05122 127.5 3.28874C127.741 3.52626 127.877 3.8484 127.877 4.18431C127.877 4.52021 127.741 4.84236 127.5 5.07988C127.258 5.31739 126.93 5.45083 126.589 5.45083H117.828C117.486 5.45043 117.159 5.31687 116.917 5.07944C116.676 4.842 116.54 4.52009 116.539 4.18431Z" fill="white"/>
<path d="M85.1618 65.9323C84.8202 65.9319 84.4928 65.7984 84.2512 65.561C84.0097 65.3235 83.8738 65.0016 83.8734 64.6658V56.0535C83.8732 55.887 83.9063 55.7221 83.9709 55.5682C84.0356 55.4143 84.1304 55.2745 84.2501 55.1567C84.3698 55.0389 84.5119 54.9454 84.6683 54.8816C84.8248 54.8179 84.9924 54.785 85.1618 54.785C85.3312 54.785 85.4989 54.8179 85.6553 54.8816C85.8117 54.9454 85.9539 55.0389 86.0735 55.1567C86.1932 55.2745 86.2881 55.4143 86.3527 55.5682C86.4173 55.7221 86.4505 55.887 86.4502 56.0535V64.6658C86.4498 65.0016 86.3139 65.3235 86.0724 65.561C85.8309 65.7984 85.5034 65.9319 85.1618 65.9323Z" fill="#3F3D56"/>
<path d="M165.414 47.2175C165.073 47.2171 164.745 47.0835 164.504 46.8461C164.262 46.6087 164.126 46.2868 164.126 45.951V37.3386C164.125 37.1721 164.159 37.0072 164.223 36.8534C164.288 36.6995 164.383 36.5596 164.502 36.4418C164.622 36.324 164.764 36.2306 164.921 36.1668C165.077 36.103 165.245 36.0702 165.414 36.0702C165.583 36.0702 165.751 36.103 165.908 36.1668C166.064 36.2306 166.206 36.324 166.326 36.4418C166.445 36.5596 166.54 36.6995 166.605 36.8534C166.67 37.0072 166.703 37.1721 166.703 37.3386V45.951C166.702 46.2868 166.566 46.6087 166.325 46.8461C166.083 47.0835 165.756 47.2171 165.414 47.2175Z" fill="#3F3D56"/>
<path d="M131.485 5.45083C132.196 5.45083 132.773 4.88379 132.773 4.18431C132.773 3.48483 132.196 2.91779 131.485 2.91779C130.773 2.91779 130.196 3.48483 130.196 4.18431C130.196 4.88379 130.773 5.45083 131.485 5.45083Z" fill="white"/>
<path d="M158.826 15.3181H91.6587C91.581 15.3164 91.507 15.2848 91.4527 15.2302C91.3983 15.1756 91.3679 15.1022 91.3679 15.0257C91.3679 14.9493 91.3983 14.8759 91.4527 14.8213C91.507 14.7666 91.581 14.7351 91.6587 14.7334H158.826C158.903 14.7351 158.977 14.7666 159.032 14.8213C159.086 14.8759 159.116 14.9493 159.116 15.0257C159.116 15.1022 159.086 15.1756 159.032 15.2302C158.977 15.2848 158.903 15.3164 158.826 15.3181Z" fill="white"/>
<path d="M96.7492 13.2408C97.7118 13.2408 98.4921 12.4566 98.4921 11.4893C98.4921 10.5221 97.7118 9.73792 96.7492 9.73792C95.7867 9.73792 95.0064 10.5221 95.0064 11.4893C95.0064 12.4566 95.7867 13.2408 96.7492 13.2408Z" fill="white"/>
<path d="M102.77 13.2408C103.732 13.2408 104.513 12.4566 104.513 11.4893C104.513 10.5221 103.732 9.73792 102.77 9.73792C101.807 9.73792 101.027 10.5221 101.027 11.4893C101.027 12.4566 101.807 13.2408 102.77 13.2408Z" fill="white"/>
<path d="M108.791 13.2408C109.753 13.2408 110.533 12.4566 110.533 11.4893C110.533 10.5221 109.753 9.73792 108.791 9.73792C107.828 9.73792 107.048 10.5221 107.048 11.4893C107.048 12.4566 107.828 13.2408 108.791 13.2408Z" fill="white"/>
<path d="M155.201 10.172H150.924C150.839 10.1737 150.758 10.2079 150.699 10.2674C150.64 10.327 150.606 10.407 150.606 10.4903C150.606 10.5737 150.64 10.6537 150.699 10.7132C150.758 10.7727 150.839 10.807 150.924 10.8087H155.201C155.285 10.807 155.366 10.7727 155.425 10.7132C155.485 10.6537 155.518 10.5737 155.518 10.4903C155.518 10.407 155.485 10.327 155.425 10.2674C155.366 10.2079 155.285 10.1737 155.201 10.172Z" fill="white"/>
<path d="M155.201 11.3669H150.924C150.839 11.3686 150.758 11.4029 150.699 11.4624C150.64 11.5219 150.606 11.6019 150.606 11.6853C150.606 11.7686 150.64 11.8486 150.699 11.9082C150.758 11.9677 150.839 12.002 150.924 12.0036H155.201C155.285 12.002 155.366 11.9677 155.425 11.9082C155.485 11.8486 155.518 11.7686 155.518 11.6853C155.518 11.6019 155.485 11.5219 155.425 11.4624C155.366 11.4029 155.285 11.3686 155.201 11.3669Z" fill="white"/>
<path d="M155.201 12.5603H150.924C150.839 12.562 150.758 12.5962 150.699 12.6558C150.64 12.7153 150.606 12.7953 150.606 12.8786C150.606 12.962 150.64 13.042 150.699 13.1015C150.758 13.161 150.839 13.1953 150.924 13.197H155.201C155.285 13.1953 155.366 13.161 155.425 13.1015C155.485 13.042 155.518 12.962 155.518 12.8786C155.518 12.7953 155.485 12.7153 155.425 12.6558C155.366 12.5962 155.285 12.562 155.201 12.5603Z" fill="white"/>
<path d="M107.658 59.9997C107.687 60.4079 107.809 60.8043 108.016 61.1596C108.477 61.8999 109.175 62.469 110 62.7778C111.004 63.1817 112.123 63.1941 113.189 63.1041C114.179 63.0204 115.158 62.8265 116.151 62.7866C116.92 62.7624 117.688 62.7804 118.455 62.8406C119.941 62.9443 121.421 63.1367 122.892 63.37C123.29 63.4324 123.687 63.4994 124.084 63.5711C124.121 63.5743 124.158 63.5811 124.195 63.5913C124.202 63.5942 124.213 63.592 124.22 63.596C124.232 63.6034 124.172 63.5772 124.208 63.607C124.259 63.6596 124.305 63.7171 124.344 63.7787L124.887 64.4658C125.03 64.6819 125.198 64.8806 125.389 65.0576C125.531 65.1654 125.702 65.2294 125.881 65.2417C126.06 65.2539 126.238 65.2139 126.394 65.1265C126.557 65.0254 126.687 64.8805 126.768 64.709C126.893 64.4837 127.042 64.2722 127.213 64.0781C127.859 63.3371 128.757 62.8813 129.508 62.2579C129.872 61.9682 130.182 61.6193 130.426 61.2263C130.634 60.8707 130.763 60.476 130.805 60.0679C130.871 59.2317 130.659 58.397 130.201 57.6893C129.728 56.932 129.048 56.3203 128.239 55.9237C127.321 55.4906 126.331 55.2238 125.316 55.1362C124.243 55.0366 123.164 55.0015 122.087 55.0311C120.879 55.0443 119.674 55.0965 118.471 55.1877C117.267 55.2793 116.067 55.4096 114.872 55.5785C113.718 55.7218 112.573 55.9281 111.442 56.1963C110.429 56.41 109.491 56.8813 108.721 57.5631C108.379 57.8726 108.107 58.2497 107.924 58.6696C107.741 59.0896 107.65 59.5428 107.658 59.9997Z" fill="#E6E6E6"/>
<path d="M124.403 57.2324H112.975C112.748 57.2328 112.531 57.3213 112.371 57.4787C112.211 57.6361 112.121 57.8495 112.121 58.0721V58.2076C112.121 58.4302 112.211 58.6436 112.371 58.801C112.531 58.9584 112.748 59.047 112.975 59.0473H124.403C124.629 59.047 124.846 58.9584 125.006 58.801C125.167 58.6436 125.257 58.4302 125.257 58.2076V58.0721C125.257 57.8495 125.167 57.6361 125.006 57.4787C124.846 57.3213 124.629 57.2327 124.403 57.2324Z" fill="white"/>
<path d="M124.403 59.5359H112.975C112.748 59.5362 112.531 59.6248 112.371 59.7822C112.211 59.9396 112.121 60.153 112.121 60.3756V60.511C112.121 60.7336 112.211 60.947 112.371 61.1044C112.531 61.2618 112.748 61.3504 112.975 61.3508H124.403C124.629 61.3504 124.846 61.2618 125.006 61.1044C125.167 60.947 125.257 60.7336 125.257 60.511V60.3756C125.257 60.153 125.167 59.9396 125.006 59.7822C124.846 59.6248 124.629 59.5362 124.403 59.5359Z" fill="white"/>
<path d="M148.13 43.3003C148.101 43.7085 147.979 44.1049 147.773 44.4602C147.311 45.2005 146.613 45.7696 145.788 46.0784C144.784 46.4823 143.665 46.4947 142.599 46.4047C141.61 46.321 140.63 46.1271 139.637 46.0872C138.869 46.063 138.1 46.081 137.334 46.1412C135.847 46.2449 134.367 46.4373 132.897 46.6706C132.498 46.733 132.101 46.8 131.704 46.8717C131.667 46.875 131.63 46.8817 131.594 46.8919C131.586 46.8948 131.575 46.8926 131.568 46.8966C131.556 46.904 131.617 46.8778 131.58 46.9076C131.529 46.9602 131.483 47.0177 131.444 47.0794L130.901 47.7664C130.758 47.9825 130.59 48.1812 130.399 48.3582C130.258 48.466 130.086 48.53 129.907 48.5423C129.728 48.5545 129.55 48.5145 129.394 48.4271C129.231 48.326 129.102 48.1811 129.02 48.0096C128.895 47.7843 128.746 47.5729 128.576 47.3787C127.929 46.6377 127.031 46.1819 126.28 45.5585C125.916 45.2688 125.606 44.9199 125.362 44.5269C125.154 44.1713 125.025 43.7766 124.983 43.3685C124.917 42.5323 125.129 41.6976 125.587 40.9899C126.06 40.2326 126.74 39.6209 127.549 39.2243C128.467 38.7912 129.458 38.5244 130.472 38.4368C131.545 38.3372 132.624 38.3021 133.702 38.3317C134.909 38.3449 136.114 38.3971 137.317 38.4883C138.521 38.5799 139.721 38.7102 140.916 38.8791C142.07 39.0224 143.216 39.2287 144.346 39.4969C145.359 39.7106 146.298 40.1819 147.067 40.8637C147.409 41.1732 147.681 41.5503 147.864 41.9702C148.047 42.3902 148.138 42.8434 148.13 43.3003Z" fill="#E6E6E6"/>
<path d="M130.531 41.3727V41.5082C130.532 41.7308 130.622 41.9442 130.782 42.1016C130.942 42.259 131.159 42.3476 131.385 42.3479H142.813C143.04 42.3476 143.257 42.259 143.417 42.1016C143.577 41.9442 143.667 41.7308 143.668 41.5082V41.3727C143.667 41.1501 143.577 40.9367 143.417 40.7793C143.257 40.6219 143.04 40.5334 142.813 40.533H131.385C131.159 40.5333 130.942 40.6219 130.782 40.7793C130.622 40.9367 130.532 41.1501 130.531 41.3727Z" fill="white"/>
<path d="M130.531 43.6763V43.8117C130.532 44.0343 130.622 44.2477 130.782 44.4051C130.942 44.5625 131.159 44.6511 131.385 44.6514H142.813C143.04 44.6511 143.257 44.5625 143.417 44.4051C143.577 44.2477 143.667 44.0343 143.668 43.8117V43.6763C143.667 43.4537 143.577 43.2403 143.417 43.0829C143.257 42.9255 143.04 42.8369 142.813 42.8365H131.385C131.159 42.8369 130.942 42.9255 130.782 43.0829C130.622 43.2403 130.532 43.4537 130.531 43.6763Z" fill="white"/>
<path d="M203.612 159.8L199.983 159.799L198.257 146.04L203.612 146.04L203.612 159.8Z" fill="#A0616A"/>
<path d="M203.515 158.634L199.643 157.088L199.529 157.042L197.391 158.634C196.218 158.634 195.089 159.079 194.242 159.877C193.394 160.674 192.893 161.763 192.842 162.915C192.836 162.979 192.836 163.045 192.836 163.111V163.258H204.537V158.634H203.515Z" fill="#2F2E41"/>
<path d="M195.113 156.48L191.69 157.664L185.416 145.248L190.468 143.5L195.113 156.48Z" fill="#A0616A"/>
<path d="M194.629 155.412L190.454 155.217L190.331 155.21L188.852 157.41C187.745 157.793 186.831 158.581 186.301 159.61C185.771 160.639 185.665 161.829 186.006 162.933C186.022 162.994 186.045 163.057 186.067 163.119L186.117 163.258L197.154 159.44L195.593 155.078L194.629 155.412Z" fill="#2F2E41"/>
<path d="M204.894 100.471C208.214 100.345 204.102 126.352 204.102 126.352C204.102 126.352 205.305 149.186 205.05 150.384C204.795 151.583 205.018 154.814 205.018 154.814C204.367 153.651 197.657 154.529 197.657 154.529L196.744 131.387L192.083 112.845L185.621 125.274L191.814 144.352C191.814 144.352 194.322 146.633 194.056 147.535C193.789 148.437 187.219 150.47 186.012 150.516C184.805 150.562 185.35 149.055 185.291 147.572C185.233 146.088 179.552 132.34 177.554 127.662C175.556 122.984 177.109 116.387 178.129 111.594C179.149 106.801 184.515 97.8062 184.515 97.8062C191.176 90.421 201.574 100.598 204.894 100.471Z" fill="#2F2E41"/>
<path d="M203.17 104.641C194.937 104.641 190.4 103.021 187.99 101.574C185.044 99.8054 184.54 97.9401 184.52 97.8613L184.514 97.8389L184.801 94.2916L184.927 94.0155C185.504 92.7439 185.581 91.3066 185.142 89.9826L185.133 89.9554L185.135 89.9269L187.06 65.3833L193.873 63.1896L195.855 61.2321L204.679 61.1063L205.908 63.5565L212.865 66.1309L209.447 86.1289L207.809 88.9049L208.468 91.9289L208.463 91.9562L206.314 104.567L206.196 104.572C205.136 104.619 204.127 104.642 203.17 104.641Z" fill="#E6E6E6"/>
<path d="M206.602 52.8503C206.337 54.7481 205.317 56.465 203.765 57.6237C202.213 58.7824 200.257 59.2881 198.326 59.0298C196.395 58.7715 194.647 57.7702 193.467 56.2459C192.286 54.7217 191.77 52.7992 192.031 50.9007L192.045 50.7981C192.349 48.9251 193.391 47.2448 194.944 46.1197C196.498 44.9947 198.439 44.5151 200.349 44.7843C202.259 45.0536 203.985 46.0502 205.155 47.5591C206.324 49.0679 206.843 50.9682 206.6 52.85L206.602 52.8503Z" fill="#A0616A"/>
<path d="M204.731 56.5733C205.108 55.8193 205.496 55.0098 205.39 54.1758C205.284 53.3419 204.452 52.5448 203.635 52.7926C203.147 52.9408 202.777 53.415 202.267 53.4393C201.564 53.4727 201.161 52.6822 200.943 52.025L200.052 49.3483C199.197 50.0036 198.205 50.4652 197.147 50.7001C196.089 50.9351 194.992 50.9376 193.933 50.7076C193.106 50.5217 192.271 50.1593 191.786 49.4752C191.301 48.7911 191.303 47.7299 191.969 47.2126C192.295 46.9589 192.729 46.8626 193.041 46.5919C193.234 46.424 193.368 46.1994 193.421 45.9512C193.475 45.703 193.445 45.4446 193.338 45.214C193.23 44.9835 193.05 44.7931 192.824 44.6711C192.597 44.5491 192.337 44.502 192.082 44.5366L194.324 44.2611L193.656 43.073C193.91 43.243 194.197 43.3589 194.5 43.4134C194.802 43.4679 195.112 43.4598 195.411 43.3895C196.014 43.2827 196.583 43.0385 197.173 42.8757C198.604 42.5165 200.115 42.6263 201.476 43.1883C202.837 43.7503 203.975 44.7338 204.716 45.9894C205.268 45.8083 205.863 45.7962 206.422 45.9549C206.981 46.1136 207.478 46.4354 207.846 46.8779C208.447 47.6269 208.61 48.6265 208.633 49.5799C208.677 51.4596 208.26 53.322 207.418 55.0101C207.176 55.5462 206.829 56.0302 206.396 56.434C206.179 56.6343 205.919 56.7852 205.635 56.8764C205.352 56.9675 205.052 56.9965 204.756 56.9615" fill="#2F2E41"/>
<path d="M121.591 121.443C121.557 121.443 121.522 121.442 121.487 121.441C121.079 121.426 120.681 121.315 120.326 121.117C119.972 120.918 119.671 120.639 119.45 120.302C117.794 117.868 115.761 115.704 113.426 113.887C112.012 112.776 110.534 111.743 109.106 110.744C105.42 108.168 101.949 105.741 100.022 102.389C95.8211 95.0781 100.768 84.8954 107.836 80.3288C115.764 75.2071 126.191 74.4038 136.278 74.2985C137.326 74.2876 138.375 74.2822 139.425 74.2822C157.6 74.2891 175.736 75.9193 193.611 79.1528C199.555 80.2308 205.777 81.5513 210.776 84.7561C215.746 87.9419 218.767 92.9589 218.473 97.5377C218.042 104.222 210.834 109.217 204.27 110.522C198.014 111.766 191.515 110.926 184.634 110.036C183.115 109.839 181.545 109.636 179.991 109.46C163.112 107.542 131.403 113.453 130.061 113.706L128.731 113.956L123.566 120.489C123.334 120.787 123.035 121.028 122.692 121.193C122.35 121.359 121.973 121.444 121.591 121.443Z" fill="#D90429"/>
<path d="M196.757 88.8341H125.414C125.002 88.8341 124.607 88.6733 124.316 88.3872C124.025 88.101 123.861 87.7129 123.861 87.3082C123.861 86.9035 124.025 86.5153 124.316 86.2292C124.607 85.943 125.002 85.7822 125.414 85.7822H196.757C197.169 85.7822 197.564 85.943 197.855 86.2292C198.146 86.5153 198.309 86.9035 198.309 87.3082C198.309 87.7129 198.146 88.101 197.855 88.3872C197.564 88.6733 197.169 88.8341 196.757 88.8341Z" fill="white"/>
<path d="M196.757 98.2004H125.414C125.21 98.2008 125.008 98.1617 124.819 98.0853C124.63 98.0089 124.459 97.8967 124.315 97.7551C124.17 97.6135 124.055 97.4454 123.977 97.2602C123.899 97.0751 123.858 96.8766 123.858 96.6761C123.858 96.4756 123.898 96.277 123.976 96.0917C124.054 95.9064 124.168 95.738 124.312 95.5961C124.456 95.4543 124.628 95.3417 124.816 95.2649C125.004 95.1881 125.206 95.1486 125.41 95.1486H196.757C197.168 95.1491 197.563 95.3101 197.853 95.5962C198.144 95.8823 198.307 96.2701 198.307 96.6745C198.307 97.0788 198.144 97.4666 197.853 97.7527C197.563 98.0389 197.168 98.1999 196.757 98.2004Z" fill="white"/>
<path d="M133.728 107.567H125.414C125.002 107.566 124.608 107.405 124.317 107.119C124.027 106.833 123.863 106.445 123.863 106.041C123.863 105.636 124.027 105.248 124.317 104.962C124.608 104.676 125.002 104.515 125.414 104.515H133.728C134.139 104.515 134.533 104.676 134.824 104.962C135.115 105.248 135.278 105.636 135.278 106.041C135.278 106.445 135.115 106.833 134.824 107.119C134.533 107.405 134.139 107.566 133.728 107.567Z" fill="white"/>
<path d="M202.628 112.841C203.057 112.677 203.445 112.422 203.763 112.095C204.081 111.768 204.323 111.376 204.47 110.948C204.618 110.519 204.668 110.063 204.617 109.614C204.567 109.164 204.416 108.73 204.176 108.344L211.942 81.1932L205.129 80.4933L199.638 107.401C199.004 107.84 198.556 108.492 198.378 109.234C198.201 109.976 198.307 110.756 198.675 111.427C199.044 112.097 199.65 112.612 200.378 112.872C201.107 113.133 201.907 113.122 202.628 112.841Z" fill="#A0616A"/>
<path d="M213.091 66.2891C213.091 66.2891 214.754 66.3479 213.932 69.7182C213.274 72.4163 210.857 89.3424 208.967 92.7173C209.375 93.0786 209.649 93.5632 209.747 94.0946C209.844 94.6261 209.758 95.1741 209.503 95.6525L201.974 92.5997C201.348 90.8929 201.833 89.3434 202.544 89.2062L203.424 84.2699L204.72 67.7101L211.889 66.2257L213.091 66.2891Z" fill="#E6E6E6"/>
<path d="M172.183 110.637C171.906 110.275 171.714 109.858 171.619 109.415C171.525 108.972 171.53 108.514 171.635 108.073C171.74 107.632 171.942 107.219 172.226 106.863C172.511 106.508 172.872 106.218 173.283 106.014L181.268 78.9248L187.43 81.866L177.644 107.569C177.946 108.27 177.977 109.057 177.729 109.779C177.481 110.501 176.973 111.109 176.3 111.487C175.626 111.865 174.836 111.988 174.077 111.831C173.318 111.674 172.644 111.249 172.183 110.637Z" fill="#A0616A"/>
<path d="M188.295 65.6705C188.295 65.6705 186.852 64.8574 185.74 68.1464C184.85 70.7795 177.813 86.4091 177.606 90.256C177.065 90.3512 176.572 90.6204 176.204 91.0214C175.836 91.4223 175.614 91.9322 175.574 92.4707L183.608 93.7852C185.056 92.6601 185.477 91.0928 184.946 90.6071L186.85 85.9582L194.642 71.221L189.35 66.24L188.295 65.6705Z" fill="#E6E6E6"/>
<path d="M247.651 163.911L28.3488 164C28.2565 164 28.168 163.963 28.1028 163.899C28.0376 163.835 28.001 163.748 28.001 163.657C28.001 163.566 28.0376 163.479 28.1028 163.415C28.168 163.351 28.2565 163.315 28.3488 163.314L247.651 163.226C247.744 163.226 247.832 163.262 247.897 163.327C247.962 163.391 247.999 163.478 247.999 163.569C247.999 163.659 247.962 163.746 247.897 163.811C247.832 163.875 247.744 163.911 247.651 163.911Z" fill="#CACACA"/>
<path d="M122.278 148.697C120.036 148.697 117.844 148.043 115.979 146.818C114.114 145.593 112.661 143.852 111.803 141.816C110.945 139.779 110.72 137.538 111.158 135.376C111.595 133.214 112.675 131.228 114.261 129.669C115.846 128.11 117.867 127.048 120.066 126.618C122.266 126.188 124.546 126.409 126.618 127.253C128.689 128.096 130.46 129.525 131.706 131.358C132.952 133.191 133.617 135.346 133.617 137.55C133.614 140.505 132.418 143.339 130.292 145.428C128.167 147.518 125.285 148.693 122.278 148.697ZM122.278 126.98C120.152 126.98 118.073 127.6 116.304 128.761C114.536 129.923 113.158 131.574 112.344 133.505C111.53 135.437 111.317 137.562 111.732 139.612C112.147 141.663 113.171 143.546 114.675 145.025C116.179 146.503 118.095 147.51 120.181 147.918C122.266 148.325 124.428 148.116 126.393 147.316C128.358 146.516 130.038 145.161 131.219 143.423C132.401 141.685 133.031 139.641 133.031 137.55C133.028 134.748 131.894 132.061 129.878 130.079C127.862 128.098 125.129 126.983 122.278 126.98Z" fill="white"/>
<path d="M121.451 141.89C121.428 141.89 121.404 141.889 121.381 141.888C121.173 141.878 120.969 141.824 120.785 141.73C120.6 141.635 120.438 141.503 120.31 141.341L118.464 139.008C118.348 138.861 118.262 138.693 118.211 138.513C118.161 138.333 118.147 138.145 118.171 137.96C118.194 137.775 118.254 137.596 118.348 137.434C118.442 137.272 118.568 137.129 118.717 137.015L118.784 136.964C118.934 136.849 119.105 136.765 119.288 136.715C119.471 136.665 119.662 136.652 119.851 136.675C120.039 136.698 120.221 136.758 120.386 136.85C120.551 136.942 120.696 137.066 120.812 137.213C120.906 137.331 121.024 137.427 121.158 137.496C121.293 137.565 121.441 137.604 121.593 137.611C121.744 137.618 121.896 137.593 122.036 137.538C122.177 137.482 122.304 137.398 122.409 137.289L126.157 133.4C126.421 133.126 126.784 132.967 127.167 132.957C127.55 132.947 127.921 133.086 128.2 133.345L128.261 133.403C128.399 133.531 128.51 133.685 128.587 133.855C128.665 134.025 128.707 134.209 128.712 134.396C128.717 134.582 128.685 134.768 128.617 134.942C128.549 135.116 128.447 135.276 128.317 135.411L122.5 141.446C122.365 141.586 122.203 141.698 122.022 141.774C121.842 141.851 121.648 141.89 121.451 141.89Z" fill="#D90429"/>
</g>
<defs>
<clipPath id="clip0_8_114">
<rect width="220" height="164" fill="white" transform="translate(28)"/>
</clipPath>
</defs>
</svg>
