<svg width="292" height="193" viewBox="0 0 292 193" fill="none" xmlns="http://www.w3.org/2000/svg">
<ellipse cx="154" cy="159.5" rx="138" ry="33.5" fill="#D90429" fill-opacity="0.24"/>
<g clip-path="url(#clip0_8_117)">
<path d="M50.6078 169C78.5577 169 101.216 167.354 101.216 165.324C101.216 163.294 78.5577 161.649 50.6078 161.649C22.6579 161.649 0 163.294 0 165.324C0 167.354 22.6579 169 50.6078 169Z" fill="#E6E6E6"/>
<path d="M38.6837 37.4981C47.4909 33.9158 58.4606 36.1855 69.1736 37.7608C69.2732 35.8531 70.4816 33.5314 69.2158 32.2005C67.678 30.5835 67.8196 28.8846 68.745 27.1758C71.1113 22.8063 67.721 18.157 64.2978 14.2911C63.5262 13.4217 62.5511 12.7386 61.4517 12.2973C60.3522 11.856 59.1594 11.6689 57.9701 11.7512L51.6289 12.1844C50.0858 12.2898 48.6132 12.8433 47.4081 13.771C46.2031 14.6986 45.3229 15.9561 44.8856 17.3751C43.3714 19.3444 42.561 21.3083 43.0713 23.2619C40.8033 24.7441 40.4223 26.5332 41.4414 28.5502C42.3056 29.8201 42.2964 31.0563 41.4021 32.2582C40.2276 33.7906 39.3281 35.4993 38.7403 37.3142L38.6837 37.4981Z" fill="#2F2E41"/>
<path d="M247.981 146.098H68.4778C66.8815 146.098 65.3506 145.491 64.2219 144.412C63.0931 143.333 62.459 141.868 62.459 140.342C127.529 133.11 191.376 133.11 254 140.342C254 141.868 253.366 143.333 252.237 144.412C251.108 145.491 249.577 146.098 247.981 146.098Z" fill="#2F2E41"/>
<path d="M254 140.681L62.459 140.342L84.6579 104.622L84.7641 104.452V25.7288C84.764 24.7733 84.9608 23.8271 85.3431 22.9443C85.7255 22.0615 86.2859 21.2593 86.9924 20.5836C87.699 19.908 88.5377 19.372 89.4609 19.0064C90.384 18.6408 91.3735 18.4526 92.3727 18.4527H223.024C224.023 18.4526 225.013 18.6408 225.936 19.0064C226.859 19.372 227.698 19.908 228.404 20.5836C229.111 21.2593 229.671 22.0615 230.054 22.9443C230.436 23.8271 230.633 24.7733 230.633 25.7288V104.994L254 140.681Z" fill="#3F3D56"/>
<path d="M92.1992 23.5314C91.5422 23.5321 90.9122 23.782 90.4476 24.2263C89.983 24.6707 89.7216 25.2731 89.7209 25.9014V97.6806C89.7217 98.309 89.983 98.9114 90.4476 99.3557C90.9122 99.8 91.5422 100.05 92.1992 100.051H224.26C224.917 100.05 225.547 99.8 226.011 99.3557C226.476 98.9114 226.737 98.309 226.738 97.6806V25.9014C226.737 25.2731 226.476 24.6707 226.011 24.2264C225.547 23.782 224.917 23.5321 224.26 23.5314H92.1992Z" fill="white"/>
<path d="M92.7526 109.531C92.5495 109.531 92.3508 109.587 92.1799 109.692C92.0089 109.797 91.8728 109.946 91.7876 110.122L84.9474 124.343C84.8729 124.497 84.8404 124.668 84.8527 124.837C84.865 125.007 84.9219 125.172 85.0179 125.315C85.114 125.459 85.2463 125.577 85.4026 125.658C85.5588 125.74 85.7341 125.783 85.9122 125.783H229.758C229.939 125.783 230.117 125.739 230.275 125.654C230.433 125.57 230.566 125.448 230.661 125.301C230.756 125.154 230.81 124.986 230.819 124.813C230.827 124.64 230.788 124.468 230.707 124.313L223.272 110.092C223.185 109.923 223.049 109.781 222.881 109.682C222.713 109.583 222.52 109.53 222.323 109.531H92.7526Z" fill="#2F2E41"/>
<path d="M157.698 22.3464C158.578 22.3464 159.292 21.6642 159.292 20.8227C159.292 19.9813 158.578 19.2991 157.698 19.2991C156.819 19.2991 156.105 19.9813 156.105 20.8227C156.105 21.6642 156.819 22.3464 157.698 22.3464Z" fill="white"/>
<path d="M143.56 128.492C143.326 128.492 143.099 128.566 142.914 128.701C142.729 128.837 142.595 129.028 142.534 129.243L140.818 135.338C140.776 135.488 140.77 135.646 140.802 135.799C140.834 135.952 140.902 136.096 141.001 136.22C141.1 136.343 141.228 136.444 141.374 136.513C141.52 136.582 141.681 136.618 141.844 136.618H174.474C174.644 136.618 174.811 136.579 174.961 136.505C175.112 136.43 175.241 136.323 175.339 136.191C175.438 136.059 175.501 135.907 175.525 135.746C175.55 135.586 175.533 135.422 175.478 135.269L173.272 129.175C173.2 128.975 173.064 128.802 172.884 128.68C172.704 128.558 172.489 128.492 172.268 128.492H143.56Z" fill="#2F2E41"/>
<path d="M230.633 103.267V104.621H84.6579L84.7678 104.452V103.267H230.633Z" fill="#2F2E41"/>
<path d="M226.561 47.4014C240.249 47.4014 251.345 36.7902 251.345 23.7007C251.345 10.6112 240.249 0 226.561 0C212.874 0 201.778 10.6112 201.778 23.7007C201.778 36.7902 212.874 47.4014 226.561 47.4014Z" fill="#D90429"/>
<path d="M236.829 34.0274H216.294C215.918 34.0271 215.558 33.8843 215.293 33.6304C215.027 33.3765 214.878 33.0322 214.878 32.6731V20.8228C214.878 20.4637 215.027 20.1194 215.293 19.8655C215.558 19.6116 215.918 19.4688 216.294 19.4684H236.829C237.204 19.4688 237.564 19.6116 237.83 19.8655C238.095 20.1194 238.244 20.4637 238.245 20.8228V32.6731C238.244 33.0322 238.095 33.3765 237.83 33.6304C237.564 33.8843 237.204 34.0271 236.829 34.0274ZM216.294 20.8228V32.6731H236.83L236.829 20.8228L216.294 20.8228Z" fill="white"/>
<path d="M232.934 20.8227H220.188V15.4054C220.188 11.4816 222.868 8.63379 226.561 8.63379C230.254 8.63379 232.934 11.4816 232.934 15.4054L232.934 20.8227ZM221.604 19.4684H231.518V15.4054C231.518 12.2158 229.48 9.98812 226.561 9.98812C223.643 9.98812 221.604 12.2158 221.604 15.4054L221.604 19.4684Z" fill="white"/>
<path d="M226.561 27.7636C227.343 27.7636 227.977 27.1573 227.977 26.4093C227.977 25.6613 227.343 25.055 226.561 25.055C225.779 25.055 225.145 25.6613 225.145 26.4093C225.145 27.1573 225.779 27.7636 226.561 27.7636Z" fill="white"/>
<path d="M209.26 75.704H107.199C106.698 75.7034 106.217 75.5128 105.863 75.174C105.509 74.8351 105.309 74.3757 105.309 73.8965V49.6856C105.309 49.2064 105.509 48.747 105.863 48.4082C106.217 48.0693 106.698 47.8787 107.199 47.8782H209.26C209.761 47.8787 210.242 48.0693 210.596 48.4082C210.95 48.747 211.15 49.2064 211.15 49.6856V73.8965C211.15 74.3757 210.95 74.8351 210.596 75.174C210.242 75.5128 209.761 75.7034 209.26 75.704ZM107.199 48.6012C106.898 48.6015 106.61 48.7158 106.397 48.9191C106.185 49.1225 106.065 49.3981 106.065 49.6856V73.8965C106.065 74.1841 106.185 74.4597 106.397 74.663C106.61 74.8663 106.898 74.9807 107.199 74.981H209.26C209.561 74.9807 209.849 74.8663 210.062 74.663C210.274 74.4597 210.394 74.1841 210.394 73.8965V49.6856C210.394 49.3981 210.274 49.1224 210.062 48.9191C209.849 48.7158 209.561 48.6015 209.26 48.6012L107.199 48.6012Z" fill="#E6E6E6"/>
<path d="M123.057 68.2246C127.309 68.2246 130.756 64.9283 130.756 60.8621C130.756 56.7958 127.309 53.4995 123.057 53.4995C118.805 53.4995 115.358 56.7958 115.358 60.8621C115.358 64.9283 118.805 68.2246 123.057 68.2246Z" fill="#E6E6E6"/>
<path d="M140.838 55.9537C140.669 55.9535 140.502 55.985 140.346 56.0466C140.19 56.1081 140.049 56.1985 139.929 56.3125C139.81 56.4264 139.715 56.5618 139.651 56.7108C139.586 56.8598 139.553 57.0195 139.553 57.1808C139.553 57.3421 139.586 57.5019 139.651 57.6509C139.715 57.7999 139.81 57.9352 139.929 58.0492C140.049 58.1632 140.19 58.2535 140.346 58.3151C140.502 58.3766 140.669 58.4082 140.838 58.4079H201.33C201.67 58.4079 201.996 58.2786 202.237 58.0485C202.478 57.8184 202.613 57.5063 202.613 57.1808C202.613 56.8554 202.478 56.5433 202.237 56.3131C201.996 56.083 201.67 55.9537 201.33 55.9537H140.838Z" fill="#E6E6E6"/>
<path d="M140.838 63.3163C140.498 63.3163 140.171 63.4456 139.931 63.6757C139.69 63.9058 139.555 64.2179 139.555 64.5434C139.555 64.8688 139.69 65.1809 139.931 65.4111C140.171 65.6412 140.498 65.7705 140.838 65.7705H166.868C167.208 65.7705 167.534 65.6412 167.775 65.4111C168.016 65.1809 168.151 64.8688 168.151 64.5434C168.151 64.2179 168.016 63.9058 167.775 63.6757C167.534 63.4456 167.208 63.3163 166.868 63.3163H140.838Z" fill="#E6E6E6"/>
<path d="M84.4068 63.8127L65.54 73.4049L65.3011 65.4114C71.4591 64.4283 77.3178 62.7167 82.735 59.9301L84.7083 55.2681C84.9233 54.7601 85.2727 54.3143 85.7223 53.9744C86.1719 53.6346 86.7062 53.4124 87.2727 53.3297C87.8392 53.2469 88.4185 53.3065 88.9536 53.5025C89.4888 53.6986 89.9615 54.0243 90.3252 54.4478C90.8574 55.0674 91.1235 55.8573 91.0694 56.6575C91.0154 57.4576 90.6453 58.2082 90.0342 58.7572L84.4068 63.8127Z" fill="#FFB8B8"/>
<path d="M38.3076 119.195C38.17 118.712 38.1408 118.207 38.2219 117.712C38.303 117.218 38.4926 116.746 38.7782 116.327L42.9227 110.244C43.903 108.805 45.4072 107.766 47.1433 107.328C48.8795 106.89 50.724 107.084 52.3188 107.873C50.577 110.709 50.8198 113.196 52.9204 115.358C49.6595 116.88 46.6457 118.845 43.9724 121.191C43.4843 121.509 42.9238 121.712 42.3376 121.781C41.7514 121.85 41.1564 121.784 40.6022 121.588C40.0479 121.393 39.5506 121.074 39.1514 120.658C38.7523 120.241 38.463 119.74 38.3076 119.195Z" fill="#2F2E41"/>
<path d="M85.2661 111.242C84.6389 112.241 83.7537 113.07 82.6952 113.648C81.6367 114.226 80.4406 114.534 79.2217 114.543L51.6884 114.743L50.4943 108.12L62.6742 104.694L52.4049 97.157L63.6294 84.5958L84.0167 102.767C85.2083 103.829 85.9825 105.251 86.2099 106.793C86.4373 108.335 86.1042 109.906 85.2661 111.242Z" fill="#2F2E41"/>
<path d="M47.3896 156.537H40.9415C35.152 118.586 29.2588 80.5295 46.6732 66.3249L67.2117 69.5223L64.5847 86.1945L53.1213 98.7557L47.3896 156.537Z" fill="#2F2E41"/>
<path d="M53.0579 165.134C52.5531 165.266 52.0249 165.294 51.508 165.217C50.9911 165.139 50.4972 164.958 50.0588 164.685L43.0575 163.785C41.553 162.847 40.4663 161.409 40.0081 159.749C39.55 158.088 39.7531 156.324 40.578 154.799C43.543 156.465 46.1439 156.232 48.4041 154.224C50.0011 157.307 52.6324 157.119 55.1454 159.717C55.4781 160.184 55.6894 160.72 55.7617 161.28C55.834 161.841 55.7652 162.41 55.5609 162.94C55.3567 163.47 55.023 163.946 54.5876 164.327C54.1522 164.709 53.6277 164.986 53.0579 165.134Z" fill="#2F2E41"/>
<path d="M62.6741 40.974L50.7331 38.2334C52.7163 34.3513 52.8796 30.0316 51.9272 25.4438L60.0471 25.2154C60.3015 30.9205 61.0712 36.2505 62.6741 40.974Z" fill="#FFB8B8"/>
<path d="M65.9559 76.3989C57.2633 82.0635 51.1214 76.5927 46.4343 68.152C47.0856 62.9871 46.0311 56.8062 44.078 50.0901C43.2093 47.1279 43.5336 43.9618 44.9868 41.2171C46.44 38.4723 48.9164 36.3483 51.9272 35.2644L62.1965 39.3754C70.9163 46.1725 72.6326 53.5351 69.3611 61.3004L65.9559 76.3989Z" fill="#D90429"/>
<path d="M40.9415 46.6837L31.3886 51.4798L48.3449 61.072L50.7042 66.6375C50.8617 67.009 50.9384 67.4072 50.9297 67.808C50.921 68.2087 50.827 68.6035 50.6535 68.9684C50.48 69.3333 50.2306 69.6606 49.9205 69.9303C49.6104 70.1999 49.2462 70.4064 48.8499 70.5371C48.3995 70.6856 47.9192 70.7324 47.4467 70.6738C46.9742 70.6152 46.5223 70.4528 46.1264 70.1993C45.7305 69.9458 45.4013 69.6081 45.1647 69.2127C44.928 68.8172 44.7903 68.3747 44.7624 67.9199L44.5238 64.0411L22.9726 57.2399C22.2465 57.0107 21.5844 56.6266 21.0365 56.1165C20.4887 55.6064 20.0693 54.9838 19.8103 54.2958C19.4328 53.293 19.4136 52.1987 19.7557 51.1843C20.0978 50.1699 20.7819 49.2925 21.701 48.6896L39.0309 37.3199L40.9415 46.6837Z" fill="#FFB8B8"/>
<path d="M50.4943 47.5973C46.5102 45.9276 42.8873 47.7414 38.3145 49.196L37.598 37.0915C42.1387 34.7771 46.4679 34.1531 50.4943 35.9496L50.4943 47.5973Z" fill="#D90429"/>
<path d="M55.2602 31.2112C59.4708 31.2112 62.8841 27.947 62.8841 23.9204C62.8841 19.8938 59.4708 16.6296 55.2602 16.6296C51.0497 16.6296 47.6364 19.8938 47.6364 23.9204C47.6364 27.947 51.0497 31.2112 55.2602 31.2112Z" fill="#FFB8B8"/>
<path d="M64.3808 23.0005C56.8325 23.7075 51.0808 22.5269 47.4048 19.1655V16.4584H63.7402L64.3808 23.0005Z" fill="#2F2E41"/>
</g>
<defs>
<clipPath id="clip0_8_117">
<rect width="254" height="169" fill="white"/>
</clipPath>
</defs>
</svg>
