<svg width="276" height="194" viewBox="0 0 276 194" fill="none" xmlns="http://www.w3.org/2000/svg">
<ellipse cx="138" cy="160.5" rx="138" ry="33.5" fill="#D90429" fill-opacity="0.24"/>
<g clip-path="url(#clip0_8_120)">
<path d="M64.8304 168.57C64.8304 168.808 64.9579 169 65.1165 169H207.76C207.92 169 208.046 168.809 208.046 168.57C208.046 168.331 207.918 168.14 207.76 168.14H65.1165C64.9579 168.14 64.8304 168.332 64.8304 168.57Z" fill="#CCCCCC"/>
<path d="M116.441 167.152H111.348V168.074H116.441V167.152Z" fill="#B6B3C5"/>
<path d="M161.527 167.306H156.434V168.227H161.527V167.306Z" fill="#B6B3C5"/>
<path d="M143.74 126.132C143.457 127.891 142.573 129.491 141.247 130.644C139.921 131.798 138.239 132.431 136.5 132.431C134.761 132.431 133.079 131.798 131.753 130.644C130.427 129.491 129.543 127.891 129.26 126.132H110.736V167.305H162.265V126.132H143.74Z" fill="#D6D6E3"/>
<path d="M162.414 164.043H110.886V165.477H162.414V164.043Z" fill="#090814"/>
<path d="M240.127 127.208H32.8726C32.111 127.207 31.3808 126.896 30.8423 126.344C30.3038 125.792 30.0008 125.043 30 124.262V2.94657C30.0008 2.16539 30.3037 1.41642 30.8422 0.864008C31.3807 0.311598 32.1109 0.000868547 32.8726 0H240.127C240.889 0.000940629 241.619 0.311656 242.158 0.86399C242.696 1.41633 242.999 2.16518 243 2.9463V124.262C242.999 125.043 242.696 125.792 242.158 126.344C241.619 126.896 240.889 127.207 240.127 127.208Z" fill="#090814"/>
<path d="M238.025 4.91571H35.2107V122.291H238.025V4.91571Z" fill="white"/>
<path d="M213.808 26.9465H110.089C108.911 26.9465 107.956 27.9258 107.956 29.1338V91.9822C107.956 93.1903 108.911 94.1695 110.089 94.1695H213.808C214.986 94.1695 215.941 93.1903 215.941 91.9822V29.1338C215.941 27.9258 214.986 26.9465 213.808 26.9465Z" fill="#F2F2F2"/>
<path d="M213.664 28.9537H109.972V92.0099H213.664V28.9537Z" fill="white"/>
<path d="M95.0585 26.9465H59.5579C58.3801 26.9465 57.4253 27.9258 57.4253 29.1338V55.9188C57.4253 57.1268 58.3801 58.1061 59.5579 58.1061H95.0585C96.2363 58.1061 97.191 57.1268 97.191 55.9188V29.1338C97.191 27.9258 96.2363 26.9465 95.0585 26.9465Z" fill="#F2F2F2"/>
<path d="M95.2149 28.4951H59.4011V56.558H95.2149V28.4951Z" fill="white"/>
<path d="M95.0585 63.0097H59.5579C58.3801 63.0097 57.4253 63.989 57.4253 65.197V91.9819C57.4253 93.19 58.3801 94.1692 59.5579 94.1692H95.0585C96.2363 94.1692 97.191 93.19 97.191 91.9819V65.197C97.191 63.989 96.2363 63.0097 95.0585 63.0097Z" fill="#F2F2F2"/>
<path d="M95.2149 64.5583H59.4011V92.6212H95.2149V64.5583Z" fill="white"/>
<path d="M82.2519 32.4232H69.7254C69.3007 32.4237 68.8935 32.597 68.5932 32.905C68.2929 33.213 68.124 33.6306 68.1235 34.0662V49.1515C68.124 49.587 68.2929 50.0046 68.5932 50.3126C68.8935 50.6206 69.3007 50.7939 69.7254 50.7944H82.2514C82.676 50.7939 83.0832 50.6206 83.3835 50.3126C83.6838 50.0046 83.8527 49.587 83.8532 49.1515V34.0662C83.8527 33.6307 83.6839 33.2132 83.3837 32.9052C83.0835 32.5972 82.6765 32.4239 82.2519 32.4232Z" fill="#E6E6E6"/>
<path d="M82.252 32.8958H69.726C69.4236 32.8962 69.1337 33.0195 68.9198 33.2389C68.706 33.4582 68.5857 33.7556 68.5853 34.0657V49.151C68.5857 49.4612 68.706 49.7586 68.9198 49.9779C69.1337 50.1972 69.4236 50.3206 69.726 50.321H82.252C82.5544 50.3206 82.8443 50.1972 83.0582 49.9779C83.272 49.7586 83.3923 49.4612 83.3926 49.151V34.0657C83.3923 33.7556 83.272 33.4582 83.0582 33.2389C82.8443 33.0195 82.5544 32.8962 82.252 32.8958Z" fill="white"/>
<path d="M83.5676 52.6298C85.1825 52.6298 86.4916 51.2871 86.4916 49.6307C86.4916 47.9744 85.1825 46.6317 83.5676 46.6317C81.9527 46.6317 80.6436 47.9744 80.6436 49.6307C80.6436 51.2871 81.9527 52.6298 83.5676 52.6298Z" fill="#D90429"/>
<path d="M84.9663 49.2392H83.9493V48.1961C83.9493 48.0923 83.9091 47.9928 83.8376 47.9195C83.7661 47.8461 83.669 47.8049 83.5679 47.8049C83.4667 47.8049 83.3697 47.8461 83.2981 47.9195C83.2266 47.9928 83.1864 48.0923 83.1864 48.1961V49.2392H82.1694C82.0683 49.2392 81.9712 49.2804 81.8997 49.3538C81.8282 49.4272 81.788 49.5267 81.788 49.6305C81.788 49.7342 81.8282 49.8337 81.8997 49.9071C81.9712 49.9805 82.0683 50.0217 82.1694 50.0217H83.1864V51.0648C83.1864 51.1685 83.2266 51.268 83.2981 51.3414C83.3697 51.4148 83.4667 51.456 83.5679 51.456C83.669 51.456 83.7661 51.4148 83.8376 51.3414C83.9091 51.268 83.9493 51.1685 83.9493 51.0648V50.0217H84.9663C85.0675 50.0217 85.1645 49.9805 85.2361 49.9071C85.3076 49.8337 85.3478 49.7342 85.3478 49.6305C85.3478 49.5267 85.3076 49.4272 85.2361 49.3538C85.1645 49.2804 85.0675 49.2392 84.9663 49.2392Z" fill="white"/>
<path d="M80.3665 41.1853H74.0324C73.9617 41.1853 73.8939 41.1565 73.844 41.1052C73.794 41.0539 73.7659 40.9844 73.7659 40.9118C73.7659 40.8393 73.794 40.7698 73.844 40.7185C73.8939 40.6672 73.9617 40.6384 74.0324 40.6384H80.3668C80.4375 40.6384 80.5053 40.6672 80.5552 40.7185C80.6052 40.7698 80.6333 40.8393 80.6333 40.9118C80.6333 40.9844 80.6052 41.0539 80.5552 41.1052C80.5053 41.1565 80.4372 41.1853 80.3665 41.1853Z" fill="#E6E6E6"/>
<path d="M81.4666 42.1085H74.0318C73.9611 42.1085 73.8933 42.0797 73.8433 42.0285C73.7933 41.9772 73.7653 41.9076 73.7653 41.8351C73.7653 41.7626 73.7933 41.6931 73.8433 41.6418C73.8933 41.5905 73.9611 41.5617 74.0318 41.5617H81.4666C81.5373 41.5617 81.6051 41.5905 81.655 41.6418C81.705 41.6931 81.7331 41.7626 81.7331 41.8351C81.7331 41.9076 81.705 41.9772 81.655 42.0285C81.6051 42.0797 81.5373 42.1085 81.4666 42.1085Z" fill="#E6E6E6"/>
<path d="M80.3661 45.3228H74.0318C73.9611 45.3228 73.8933 45.294 73.8433 45.2427C73.7933 45.1914 73.7653 45.1219 73.7653 45.0494C73.7653 44.9768 73.7933 44.9073 73.8433 44.856C73.8933 44.8047 73.9611 44.7759 74.0318 44.7759H80.3661C80.4368 44.7759 80.5046 44.8047 80.5546 44.856C80.6046 44.9073 80.6327 44.9768 80.6327 45.0494C80.6327 45.1219 80.6046 45.1914 80.5546 45.2427C80.5046 45.294 80.4368 45.3228 80.3661 45.3228Z" fill="#E6E6E6"/>
<path d="M81.4666 46.2471H74.0318C73.9611 46.2471 73.8933 46.2183 73.8433 46.1671C73.7933 46.1158 73.7653 46.0462 73.7653 45.9737C73.7653 45.9012 73.7933 45.8317 73.8433 45.7804C73.8933 45.7291 73.9611 45.7003 74.0318 45.7003H81.4666C81.5373 45.7003 81.6051 45.7291 81.655 45.7804C81.705 45.8317 81.7331 45.9012 81.7331 45.9737C81.7331 46.0462 81.705 46.1158 81.655 46.1671C81.6051 46.2183 81.5373 46.2471 81.4666 46.2471Z" fill="#E6E6E6"/>
<path d="M72.6132 42.5277H70.3716C70.3377 42.5277 70.3051 42.5138 70.2811 42.4892C70.2571 42.4646 70.2437 42.4312 70.2437 42.3964V40.3499C70.2437 40.3151 70.2571 40.2817 70.2811 40.2571C70.3051 40.2325 70.3377 40.2187 70.3716 40.2187H72.6132C72.6471 40.2187 72.6797 40.2325 72.7037 40.2571C72.7277 40.2817 72.7412 40.3151 72.7412 40.3499V42.3964C72.7412 42.4312 72.7277 42.4646 72.7037 42.4892C72.6797 42.5138 72.6471 42.5277 72.6132 42.5277Z" fill="#E6E6E6"/>
<path d="M72.6132 46.6657H70.3716C70.3377 46.6657 70.3051 46.6519 70.2811 46.6273C70.2571 46.6027 70.2437 46.5693 70.2437 46.5345V44.4874C70.2437 44.4526 70.2571 44.4192 70.2811 44.3946C70.3051 44.37 70.3377 44.3562 70.3716 44.3562H72.6132C72.6471 44.3562 72.6797 44.37 72.7037 44.3946C72.7277 44.4192 72.7412 44.4526 72.7412 44.4874V46.5339C72.7412 46.5512 72.738 46.5683 72.7316 46.5843C72.7252 46.6003 72.7158 46.6149 72.7039 46.6271C72.692 46.6393 72.6779 46.6491 72.6623 46.6557C72.6467 46.6623 72.6301 46.6657 72.6132 46.6657Z" fill="#E6E6E6"/>
<path d="M80.3732 36.5783H75.7042C75.6335 36.5783 75.5657 36.5495 75.5157 36.4982C75.4657 36.447 75.4376 36.3774 75.4376 36.3049C75.4376 36.2324 75.4657 36.1629 75.5157 36.1116C75.5657 36.0603 75.6335 36.0315 75.7042 36.0315H80.3743C80.445 36.0315 80.5128 36.0603 80.5628 36.1116C80.6128 36.1629 80.6409 36.2324 80.6409 36.3049C80.6409 36.3774 80.6128 36.447 80.5628 36.4982C80.5128 36.5495 80.445 36.5783 80.3743 36.5783H80.3732Z" fill="#D90429"/>
<path d="M81.4736 37.5017H75.7042C75.6335 37.5017 75.5657 37.4729 75.5157 37.4216C75.4657 37.3703 75.4376 37.3008 75.4376 37.2282C75.4376 37.1557 75.4657 37.0862 75.5157 37.0349C75.5657 36.9836 75.6335 36.9548 75.7042 36.9548H81.4744C81.5451 36.9548 81.6129 36.9836 81.6629 37.0349C81.7129 37.0862 81.741 37.1557 81.741 37.2282C81.741 37.3008 81.7129 37.3703 81.6629 37.4216C81.6129 37.4729 81.5451 37.5017 81.4744 37.5017H81.4736Z" fill="#D90429"/>
<path d="M74.6699 38.6208H70.3648C70.3308 38.6208 70.2983 38.607 70.2743 38.5824C70.2503 38.5578 70.2368 38.5244 70.2368 38.4896V35.0446C70.2368 35.0098 70.2503 34.9764 70.2743 34.9518C70.2983 34.9272 70.3308 34.9133 70.3648 34.9133H74.6699C74.7039 34.9133 74.7364 34.9272 74.7604 34.9518C74.7844 34.9764 74.7979 35.0098 74.7979 35.0446V38.4896C74.7979 38.5244 74.7844 38.5578 74.7604 38.5824C74.7364 38.607 74.7039 38.6208 74.6699 38.6208Z" fill="#D90429"/>
<path d="M176.645 75.9176H149.277C148.932 75.9171 148.602 75.7764 148.358 75.5263C148.114 75.2762 147.977 74.9371 147.977 74.5836V36.4774C147.978 36.124 148.115 35.7853 148.358 35.5354C148.602 35.2855 148.932 35.145 149.277 35.1445H176.645C176.99 35.145 177.32 35.2855 177.564 35.5354C177.807 35.7853 177.944 36.124 177.945 36.4774V74.5836C177.945 74.9371 177.808 75.2762 177.564 75.5263C177.321 75.7764 176.99 75.9171 176.645 75.9176Z" fill="#F2F2F2"/>
<path d="M157.142 50.2034C157.082 50.2079 157.025 50.2286 156.975 50.2632C157.227 50.2472 157.477 50.2118 157.724 50.1572L157.142 50.2034Z" fill="#2F2E41"/>
<path d="M156.644 39.7061C155.494 39.7062 154.376 40.0957 153.464 40.8141C152.552 41.5325 151.897 42.5396 151.6 43.6791C151.303 44.8186 151.381 46.0268 151.822 47.1161C152.263 48.2054 153.043 49.1149 154.039 49.7034C154.304 49.8605 154.581 49.9931 154.869 50.0996L154.918 50.1168C155.472 50.3166 156.056 50.4183 156.644 50.4176C156.758 50.4176 156.871 50.4137 156.983 50.405C157.242 50.3885 157.5 50.3519 157.753 50.2956C157.895 50.2639 158.034 50.2262 158.166 50.1849C158.198 50.1753 158.228 50.1657 158.261 50.1551C159.443 49.7603 160.448 48.9459 161.097 47.8585C161.746 46.771 161.996 45.4818 161.801 44.2226C161.606 42.9633 160.98 41.8166 160.035 40.9886C159.089 40.1607 157.887 39.7057 156.644 39.7055V39.7061ZM159.673 49.074C159.223 49.4306 158.716 49.7048 158.174 49.8847L158.085 49.9137C157.96 49.9533 157.829 49.9878 157.693 50.0178C157.453 50.0715 157.21 50.1064 156.965 50.122C156.858 50.1297 156.752 50.1335 156.644 50.1335C156.087 50.1338 155.534 50.0377 155.009 49.8491L154.963 49.8327C154.677 49.7273 154.401 49.5944 154.14 49.4357C153.229 48.8856 152.514 48.0503 152.1 47.0525C151.686 46.0547 151.595 44.9471 151.841 43.8924C152.086 42.8377 152.655 41.8915 153.463 41.1929C154.272 40.4943 155.277 40.0801 156.332 40.0112C157.388 39.9422 158.436 40.2222 159.325 40.81C160.213 41.3977 160.894 42.2623 161.268 43.2765C161.642 44.2908 161.689 45.4013 161.402 46.4449C161.115 47.4885 160.509 48.4101 159.673 49.0743L159.673 49.074Z" fill="#CCCCCC"/>
<path d="M171.348 45.0409H163.603C163.441 45.0409 163.285 44.9747 163.17 44.8567C163.055 44.7388 162.99 44.5788 162.99 44.4121C162.99 44.2453 163.055 44.0853 163.17 43.9674C163.285 43.8495 163.441 43.7832 163.603 43.7832H171.348C171.51 43.7832 171.666 43.8495 171.781 43.9674C171.896 44.0853 171.961 44.2453 171.961 44.4121C171.961 44.5788 171.896 44.7388 171.781 44.8567C171.666 44.9747 171.51 45.0409 171.348 45.0409Z" fill="#E6E6E6"/>
<path d="M173.875 47.1614H163.603C163.441 47.1614 163.285 47.0952 163.17 46.9773C163.055 46.8593 162.99 46.6994 162.99 46.5326C162.99 46.3658 163.055 46.2059 163.17 46.0879C163.285 45.97 163.441 45.9037 163.603 45.9037H173.875C174.038 45.9037 174.193 45.97 174.308 46.0879C174.423 46.2059 174.488 46.3658 174.488 46.5326C174.488 46.6994 174.423 46.8593 174.308 46.9773C174.193 47.0952 174.037 47.1614 173.875 47.1614Z" fill="#E6E6E6"/>
<path d="M171.335 55.2966H152.047C151.885 55.2966 151.729 55.2303 151.614 55.1124C151.499 54.9945 151.434 54.8345 151.434 54.6677C151.434 54.501 151.499 54.341 151.614 54.2231C151.729 54.1051 151.885 54.0389 152.047 54.0389H171.335C171.498 54.0389 171.654 54.1051 171.769 54.2231C171.884 54.341 171.948 54.501 171.948 54.6677C171.948 54.8345 171.884 54.9945 171.769 55.1124C171.654 55.2303 171.498 55.2966 171.335 55.2966Z" fill="#E6E6E6"/>
<path d="M173.862 57.4171H152.047C151.885 57.4171 151.729 57.3509 151.614 57.2329C151.499 57.115 151.434 56.9551 151.434 56.7883C151.434 56.6215 151.499 56.4615 151.614 56.3436C151.729 56.2257 151.885 56.1594 152.047 56.1594H173.863C174.025 56.1594 174.181 56.2257 174.296 56.3436C174.411 56.4615 174.476 56.6215 174.476 56.7883C174.476 56.9551 174.411 57.115 174.296 57.2329C174.181 57.3509 174.025 57.4171 173.863 57.4171H173.862Z" fill="#E6E6E6"/>
<path d="M188.063 49.9616C188.088 49.7229 188.041 49.482 187.928 49.2716C187.815 49.0613 187.642 48.8917 187.431 48.7859L166.339 38.2125C166.068 38.0766 165.756 38.0566 165.471 38.157C165.185 38.2573 164.951 38.4697 164.818 38.7475L156.905 55.3495C156.773 55.6276 156.754 55.948 156.852 56.2406C156.95 56.5331 157.157 56.7739 157.428 56.9101L178.52 67.4836C178.791 67.619 179.104 67.6387 179.389 67.5382C179.674 67.4378 179.909 67.2254 180.042 66.9477L187.953 50.3463C188.011 50.2256 188.048 50.0954 188.063 49.9616Z" fill="white"/>
<path d="M188.063 49.9616C188.088 49.7229 188.041 49.482 187.928 49.2716C187.815 49.0613 187.642 48.8917 187.431 48.7859L166.339 38.2125C166.068 38.0766 165.756 38.0566 165.471 38.157C165.185 38.2573 164.951 38.4697 164.818 38.7475L156.905 55.3495C156.773 55.6276 156.754 55.948 156.852 56.2406C156.95 56.5331 157.157 56.7739 157.428 56.9101L178.52 67.4836C178.791 67.619 179.104 67.6387 179.389 67.5382C179.674 67.4378 179.909 67.2254 180.042 66.9477L187.953 50.3463C188.011 50.2256 188.048 50.0954 188.063 49.9616ZM179.923 66.8872C179.805 67.1323 179.598 67.3196 179.347 67.4082C179.095 67.4969 178.819 67.4795 178.58 67.36L157.488 56.7865C157.249 56.6664 157.066 56.4539 156.98 56.1958C156.893 55.9377 156.91 55.655 157.027 55.4096L164.938 38.8082C165.055 38.5632 165.262 38.3759 165.514 38.2872C165.765 38.1986 166.041 38.216 166.28 38.3355L187.372 48.9089C187.611 49.0291 187.794 49.2416 187.88 49.4997C187.967 49.7578 187.95 50.0405 187.833 50.2859L179.923 66.8872Z" fill="#3F3D56"/>
<path d="M185.761 50.7175L180.237 62.3102C180.2 62.3875 180.135 62.4467 180.056 62.4747C179.976 62.5027 179.889 62.4972 179.814 62.4595L160.628 52.8413C160.614 52.8346 160.601 52.8266 160.588 52.8176C160.526 52.7737 160.48 52.7082 160.461 52.6329C160.441 52.5576 160.449 52.4775 160.482 52.4074L166.006 40.8147C166.043 40.7374 166.108 40.6782 166.187 40.6502C166.267 40.6222 166.354 40.6277 166.429 40.6654L185.615 50.2836C185.691 50.3214 185.748 50.3883 185.776 50.4698C185.803 50.5512 185.798 50.6404 185.761 50.7177L185.761 50.7175Z" fill="#E6E6E6"/>
<path d="M168.917 50.1279C170.452 50.1279 171.696 48.852 171.696 47.2781C171.696 45.7042 170.452 44.4283 168.917 44.4283C167.383 44.4283 166.139 45.7042 166.139 47.2781C166.139 48.852 167.383 50.1279 168.917 50.1279Z" fill="#D90429"/>
<path d="M172.986 59.0935L160.739 52.9546C160.724 52.9469 160.709 52.9377 160.695 52.9273L171.391 45.5407C171.456 45.4943 171.533 45.4667 171.613 45.4607C171.693 45.4547 171.772 45.4705 171.844 45.5065C171.916 45.5425 171.977 45.5973 172.021 45.6655C172.066 45.7337 172.092 45.8127 172.097 45.8945L172.693 54.7485L172.722 55.1722L172.986 59.0935Z" fill="#090814"/>
<path opacity="0.2" d="M172.986 59.0934L168.805 56.9974L172.315 54.9684L172.567 54.8224L172.694 54.7491L172.722 55.1729L172.986 59.0934Z" fill="black"/>
<path d="M179.805 62.5112L169.213 57.2016L172.722 55.1725L172.975 55.0263L177.549 52.3821C177.625 52.345 177.708 52.3248 177.792 52.3227C177.877 52.3207 177.961 52.3369 178.038 52.3702C178.116 52.4035 178.187 52.4533 178.245 52.5162C178.302 52.5792 178.347 52.6539 178.375 52.7356C178.381 52.7581 178.386 52.7811 178.39 52.8042L179.805 62.5112Z" fill="#090814"/>
<path d="M184.771 84.4845H138.397C137.575 84.4836 136.787 84.1482 136.205 83.5518C135.624 82.9555 135.297 82.147 135.296 81.3036V55.1825C135.297 54.3392 135.624 53.5307 136.205 52.9343C136.787 52.338 137.575 52.0026 138.397 52.0016H144.083C144.854 52.001 145.598 52.296 146.169 52.8287L152.335 57.3447C152.737 57.7215 153.262 57.9302 153.806 57.9298H185.059C185.47 57.9298 185.877 58.0136 186.256 58.1763C186.636 58.339 186.979 58.5773 187.268 58.8775C187.556 59.1777 187.784 59.5338 187.937 59.9249C188.09 60.3161 188.166 60.7346 188.16 61.1561L187.872 81.3493C187.857 82.1839 187.524 82.9793 186.945 83.5652C186.365 84.1512 185.585 84.4812 184.771 84.4845Z" fill="#D90429"/>
<path d="M156.826 48.5129H156.832C157.685 48.4651 158.489 48.0864 159.08 47.4533C159.671 46.8203 160.005 45.9804 160.014 45.104C160.024 44.2275 159.708 43.3802 159.131 42.7337C158.554 42.0873 157.759 41.6901 156.907 41.6228C156.896 41.622 156.886 41.6234 156.876 41.6269C156.866 41.6304 156.857 41.636 156.849 41.6433C156.841 41.6506 156.835 41.6594 156.831 41.6692C156.826 41.6791 156.824 41.6897 156.824 41.7005L156.75 48.4341C156.75 48.4445 156.752 48.4548 156.756 48.4644C156.76 48.474 156.765 48.4828 156.772 48.4902C156.779 48.4976 156.788 48.5036 156.797 48.5076C156.806 48.5117 156.816 48.5138 156.826 48.514V48.5129Z" fill="#D90429"/>
<path d="M154.187 42.7349C154.213 42.7352 154.238 42.7461 154.256 42.7653L156.516 45.136C156.525 45.1455 156.532 45.1567 156.537 45.1691C156.542 45.1814 156.545 45.1946 156.544 45.2079L156.509 48.4298C156.509 48.4437 156.506 48.4573 156.501 48.4699C156.495 48.4825 156.487 48.4938 156.477 48.5031C156.467 48.5127 156.455 48.5201 156.443 48.5248C156.43 48.5295 156.416 48.5314 156.403 48.5305C155.774 48.4825 155.171 48.2556 154.661 47.8754C154.152 47.4952 153.755 46.9767 153.517 46.3783C153.279 45.7798 153.208 45.125 153.313 44.4876C153.418 43.8501 153.694 43.2553 154.11 42.7699C154.119 42.7594 154.13 42.751 154.142 42.745C154.155 42.7391 154.168 42.7359 154.182 42.7355L154.187 42.7349Z" fill="#E6E6E6"/>
<path d="M156.484 41.5943C156.509 41.5943 156.534 41.6041 156.552 41.6216C156.562 41.6312 156.57 41.6427 156.575 41.6554C156.58 41.6682 156.583 41.6819 156.582 41.6957L156.551 44.6029C156.551 44.623 156.545 44.6425 156.534 44.6591C156.523 44.6756 156.507 44.6885 156.489 44.6959C156.471 44.7034 156.451 44.7052 156.432 44.701C156.413 44.6969 156.395 44.687 156.381 44.6727L154.409 42.604C154.399 42.5942 154.392 42.5825 154.387 42.5697C154.383 42.5568 154.38 42.5432 154.381 42.5294C154.381 42.5157 154.385 42.5022 154.39 42.4898C154.396 42.4774 154.404 42.4663 154.414 42.4572C154.988 41.9394 155.715 41.6352 156.478 41.5938L156.484 41.5943Z" fill="#090814"/>
<path d="M77.3087 79.1797C74.9895 79.1797 73.1008 77.1231 73.1008 74.5951C73.1008 72.0671 74.9884 70.0105 77.3087 70.0105C79.6289 70.0105 81.5165 72.0671 81.5165 74.5951C81.5165 77.1231 79.6289 79.1797 77.3087 79.1797ZM77.3087 71.1687C75.6112 71.1687 74.2303 72.7055 74.2303 74.5948C74.2303 76.4841 75.6112 78.021 77.3087 78.021C79.0062 78.021 80.3871 76.4838 80.3871 74.5948C80.3871 72.7058 79.006 71.1689 77.3087 71.1689V71.1687Z" fill="#D6D6E3"/>
<path d="M81.2928 87.1693H73.3223C72.6196 87.1685 71.9458 86.8819 71.4489 86.3722C70.9519 85.8626 70.6724 85.1716 70.6715 84.4508V76.4329C70.6721 75.9394 70.8635 75.4663 71.2037 75.1174C71.5439 74.7684 72.0052 74.5721 72.4863 74.5715H82.1277C82.6089 74.572 83.0702 74.7683 83.4105 75.1173C83.7507 75.4663 83.9421 75.9394 83.9426 76.4329V84.4505C83.9418 85.1711 83.6624 85.8621 83.1657 86.3717C82.669 86.8814 81.9955 87.1682 81.2928 87.1693Z" fill="#D90429"/>
<path d="M78.8612 79.1326C78.8614 78.8495 78.7881 78.5714 78.6486 78.327C78.5092 78.0826 78.3088 77.8807 78.068 77.7422C77.8272 77.6036 77.5548 77.5334 77.2788 77.5388C77.0028 77.5442 76.7331 77.6249 76.4976 77.7727C76.2621 77.9205 76.0693 78.13 75.939 78.3796C75.8087 78.6292 75.7456 78.91 75.7563 79.1929C75.767 79.4759 75.851 79.7508 75.9997 79.9894C76.1484 80.228 76.3564 80.4216 76.6023 80.5503V83.0424H78.0151V80.5503C78.2698 80.4169 78.4837 80.2139 78.633 79.9637C78.7823 79.7136 78.8613 79.426 78.8612 79.1326Z" fill="white"/>
</g>
<defs>
<clipPath id="clip0_8_120">
<rect width="213" height="169" fill="white" transform="translate(30)"/>
</clipPath>
</defs>
</svg>
