<svg width="534" height="533" viewBox="0 0 534 533" fill="none" xmlns="http://www.w3.org/2000/svg">
<g clip-path="url(#clip0_4_457)">
<path d="M262.798 121.1H260.59V44.3949C260.59 32.6207 256.901 21.3287 250.334 13.003C243.767 4.67733 234.86 1.46816e-05 225.573 2.81758e-10H97.3936C92.7952 -2.07697e-05 88.2418 1.14827 83.9934 3.3793C79.745 5.61033 75.8848 8.88042 72.6332 13.0028C69.3816 17.1253 66.8023 22.0193 65.0426 27.4056C63.2828 32.7918 62.3771 38.5647 62.3771 44.3947V465.206C62.3771 471.036 63.2828 476.809 65.0425 482.195C66.8022 487.581 69.3815 492.475 72.6331 496.598C75.8847 500.72 79.7448 503.99 83.9932 506.221C88.2416 508.452 92.795 509.601 97.3934 509.601H225.573C230.172 509.601 234.725 508.452 238.973 506.221C243.222 503.99 247.082 500.72 250.334 496.598C253.585 492.475 256.164 487.581 257.924 482.195C259.684 476.809 260.59 471.036 260.59 465.206V175.7H262.798V121.1Z" fill="#3F3D56"/>
<path d="M226.722 12.6H209.991C210.76 14.9917 211.054 17.5865 210.846 20.156C210.638 22.7255 209.935 25.1908 208.799 27.3346C207.662 29.4785 206.127 31.2351 204.329 32.4497C202.531 33.6644 200.525 34.2998 198.488 34.3H125.056C123.018 34.2998 121.012 33.6644 119.214 32.4497C117.416 31.2351 115.881 29.4785 114.745 27.3346C113.609 25.1908 112.905 22.7256 112.698 20.1561C112.49 17.5865 112.783 14.9917 113.553 12.6H97.9254C90.99 12.6 84.3387 16.0929 79.4347 22.3104C74.5306 28.5279 71.7755 36.9606 71.7755 45.7535V465.947C71.7755 470.301 72.4519 474.612 73.7661 478.634C75.0802 482.657 77.0064 486.311 79.4346 489.39C81.8629 492.469 84.7456 494.911 87.9182 496.577C91.0909 498.243 94.4913 499.101 97.9254 499.101H226.722C233.658 499.101 240.309 495.608 245.213 489.39C250.117 483.173 252.872 474.74 252.872 465.947V45.7536C252.872 41.3998 252.196 37.0886 250.882 33.0662C249.568 29.0439 247.641 25.389 245.213 22.3104C242.785 19.2318 239.902 16.7898 236.73 15.1236C233.557 13.4575 230.156 12.6 226.722 12.6ZM223.911 207.53C223.906 209.806 223.191 211.986 221.922 213.595C220.653 215.204 218.933 216.111 217.138 216.118H184.4C182.605 216.111 180.886 215.204 179.617 213.595C178.347 211.986 177.632 209.806 177.627 207.53V205.384C177.632 203.108 178.347 200.928 179.617 199.319C180.886 197.71 182.605 196.803 184.4 196.796H217.138C218.933 196.803 220.653 197.71 221.922 199.319C223.191 200.928 223.906 203.108 223.911 205.384V207.53ZM227.58 169.602C227.575 171.878 226.86 174.058 225.591 175.667C224.322 177.276 222.602 178.183 220.807 178.19H103.402C101.607 178.183 99.8877 177.276 98.6186 175.667C97.3495 174.058 96.6342 171.878 96.6289 169.602V167.456C96.6342 165.18 97.3495 163 98.6186 161.391C99.8877 159.782 101.607 158.875 103.402 158.868H220.807C222.602 158.875 224.322 159.782 225.591 161.391C226.86 163 227.575 165.18 227.58 167.456V169.602ZM227.58 131.674C227.575 133.95 226.86 136.13 225.591 137.739C224.322 139.348 222.602 140.255 220.807 140.262H103.402C101.607 140.255 99.8877 139.348 98.6186 137.739C97.3495 136.13 96.6342 133.95 96.6289 131.674V129.528C96.6342 127.252 97.3495 125.072 98.6186 123.463C99.8877 121.854 101.607 120.947 103.402 120.94H220.807C222.602 120.947 224.322 121.854 225.591 123.463C226.86 125.072 227.575 127.252 227.58 129.528V131.674ZM227.58 93.7464C227.575 96.0219 226.86 98.2023 225.591 99.8113C224.322 101.42 222.602 102.327 220.807 102.334H103.402C101.607 102.327 99.8877 101.42 98.6186 99.8113C97.3495 98.2023 96.6342 96.0219 96.6289 93.7464V91.5996C96.6342 89.3241 97.3495 87.1437 98.6186 85.5347C99.8877 83.9257 101.607 83.0188 103.402 83.0121H220.807C222.602 83.0188 224.322 83.9257 225.591 85.5347C226.86 87.1437 227.575 89.3241 227.58 91.5996V93.7464Z" fill="white"/>
<path d="M105.942 173.896C108.124 173.896 109.893 171.653 109.893 168.887C109.893 166.12 108.124 163.877 105.942 163.877C103.76 163.877 101.991 166.12 101.991 168.887C101.991 171.653 103.76 173.896 105.942 173.896Z" fill="white"/>
<path d="M118.925 173.896C121.107 173.896 122.876 171.653 122.876 168.887C122.876 166.12 121.107 163.877 118.925 163.877C116.742 163.877 114.973 166.12 114.973 168.887C114.973 171.653 116.742 173.896 118.925 173.896Z" fill="white"/>
<path d="M131.907 173.896C134.089 173.896 135.858 171.653 135.858 168.887C135.858 166.12 134.089 163.877 131.907 163.877C129.725 163.877 127.956 166.12 127.956 168.887C127.956 171.653 129.725 173.896 131.907 173.896Z" fill="white"/>
<path d="M144.889 173.896C147.071 173.896 148.84 171.653 148.84 168.887C148.84 166.12 147.071 163.877 144.889 163.877C142.707 163.877 140.938 166.12 140.938 168.887C140.938 171.653 142.707 173.896 144.889 173.896Z" fill="white"/>
<path d="M187.222 211.824C189.405 211.824 191.174 209.581 191.174 206.815C191.174 204.048 189.405 201.805 187.222 201.805C185.04 201.805 183.271 204.048 183.271 206.815C183.271 209.581 185.04 211.824 187.222 211.824Z" fill="white"/>
<path d="M200.205 211.824C202.387 211.824 204.156 209.581 204.156 206.815C204.156 204.048 202.387 201.805 200.205 201.805C198.023 201.805 196.254 204.048 196.254 206.815C196.254 209.581 198.023 211.824 200.205 211.824Z" fill="white"/>
<path d="M213.187 211.824C215.369 211.824 217.138 209.581 217.138 206.815C217.138 204.048 215.369 201.805 213.187 201.805C211.005 201.805 209.236 204.048 209.236 206.815C209.236 209.581 211.005 211.824 213.187 211.824Z" fill="white"/>
<path d="M228.489 271.72H94.5917C91.446 271.72 88.4292 273.305 86.2048 276.125C83.9805 278.945 82.7309 282.77 82.7309 286.758V369.468C82.7309 373.456 83.9805 377.281 86.2048 380.101C88.4292 382.921 91.446 384.505 94.5917 384.505H228.489C231.634 384.505 234.651 382.921 236.876 380.101C239.1 377.281 240.35 373.456 240.35 369.468V286.758C240.35 282.77 239.1 278.945 236.876 276.125C234.651 273.305 231.634 271.72 228.489 271.72ZM91.2789 281.978C91.5434 281.918 97.8131 280.565 103.005 284.526C108.196 288.485 110.191 296.143 110.273 296.467L110.483 297.292L109.809 297.444C108.848 297.634 107.876 297.725 106.904 297.714C103.818 297.789 100.772 296.816 98.0831 294.896C92.8917 290.937 90.8973 283.279 90.8151 282.955L90.6052 282.13L91.2789 281.978ZM120.344 358.769H96.4628C94.721 358.769 93.0506 357.892 91.8189 356.33C90.5873 354.769 89.8954 352.651 89.8954 350.443C89.8954 348.234 90.5873 346.117 91.8189 344.555C93.0506 342.994 94.721 342.116 96.4628 342.116H120.344C122.086 342.116 123.757 342.994 124.988 344.555C126.22 346.117 126.912 348.234 126.912 350.443C126.912 352.651 126.22 354.769 124.988 356.33C123.757 357.892 122.086 358.769 120.344 358.769ZM229.006 357.255C229 359.662 228.244 361.968 226.901 363.67C225.559 365.372 223.74 366.332 221.841 366.339H203.93C202.032 366.332 200.213 365.372 198.87 363.67C197.528 361.968 196.771 359.662 196.766 357.255V343.63C196.771 341.223 197.528 338.917 198.87 337.215C200.213 335.513 202.032 334.554 203.93 334.547H221.841C223.74 334.554 225.559 335.513 226.901 337.215C228.244 338.917 229 341.223 229.006 343.63L229.006 357.255Z" fill="#D90429"/>
<path d="M209.705 354.448H202.503C201.989 354.448 201.496 354.707 201.132 355.168C200.769 355.629 200.565 356.254 200.565 356.906C200.565 357.558 200.769 358.183 201.132 358.644C201.496 359.105 201.989 359.364 202.503 359.364H209.705C210.219 359.364 210.712 359.105 211.076 358.644C211.44 358.183 211.644 357.558 211.644 356.906C211.644 356.254 211.44 355.629 211.076 355.168C210.712 354.707 210.219 354.448 209.705 354.448Z" fill="#3F3D56"/>
<path d="M223 354.448H215.799C215.284 354.448 214.791 354.707 214.428 355.168C214.064 355.629 213.86 356.254 213.86 356.906C213.86 357.558 214.064 358.183 214.428 358.644C214.791 359.105 215.284 359.364 215.799 359.364H223C223.515 359.364 224.008 359.105 224.371 358.644C224.735 358.183 224.939 357.558 224.939 356.906C224.939 356.254 224.735 355.629 224.371 355.168C224.008 354.707 223.515 354.448 223 354.448Z" fill="#3F3D56"/>
<path d="M209.704 347.508H202.502C201.988 347.508 201.495 347.767 201.131 348.228C200.768 348.689 200.563 349.315 200.563 349.967C200.563 350.619 200.768 351.244 201.131 351.705C201.495 352.166 201.988 352.425 202.502 352.425H209.704C210.218 352.425 210.711 352.166 211.075 351.705C211.439 351.244 211.643 350.619 211.643 349.967C211.643 349.315 211.439 348.689 211.075 348.228C210.711 347.767 210.218 347.508 209.704 347.508Z" fill="#3F3D56"/>
<path d="M222.999 347.508H215.798C215.283 347.508 214.79 347.767 214.427 348.228C214.063 348.689 213.859 349.315 213.859 349.967C213.859 350.619 214.063 351.244 214.427 351.705C214.79 352.166 215.283 352.425 215.798 352.425H222.999C223.513 352.425 224.007 352.166 224.37 351.705C224.734 351.244 224.938 350.619 224.938 349.967C224.938 349.315 224.734 348.689 224.37 348.228C224.007 347.767 223.513 347.508 222.999 347.508Z" fill="#3F3D56"/>
<path d="M209.704 340.71H202.502C201.988 340.71 201.495 340.969 201.131 341.43C200.768 341.891 200.563 342.516 200.563 343.168C200.563 343.82 200.768 344.445 201.131 344.906C201.495 345.367 201.988 345.626 202.502 345.626H209.704C210.218 345.626 210.711 345.367 211.075 344.906C211.439 344.445 211.643 343.82 211.643 343.168C211.643 342.516 211.439 341.891 211.075 341.43C210.711 340.969 210.218 340.71 209.704 340.71Z" fill="#3F3D56"/>
<path d="M222.999 340.71H215.798C215.283 340.71 214.79 340.969 214.427 341.43C214.063 341.891 213.859 342.516 213.859 343.168C213.859 343.82 214.063 344.445 214.427 344.906C214.79 345.367 215.283 345.626 215.798 345.626H222.999C223.513 345.626 224.007 345.367 224.37 344.906C224.734 344.445 224.938 343.82 224.938 343.168C224.938 342.516 224.734 341.891 224.37 341.43C224.007 340.969 223.513 340.71 222.999 340.71Z" fill="#3F3D56"/>
<path d="M321.228 302.877H303.763V325.019H321.228V302.877Z" fill="#E6E6E6"/>
<path d="M283.179 316.321H311.871V352.697H283.179V316.321ZM310.624 317.902H284.427V351.116H310.624V317.902Z" fill="#3F3D56"/>
<path d="M17.4648 120.202H0V142.344H17.4648V120.202Z" fill="#E6E6E6"/>
<path d="M38.0483 128.901H9.35614V92.5237H38.0483V128.901ZM10.6036 127.319H36.8008V94.1053H10.6036V127.319Z" fill="#3F3D56"/>
<path d="M407.352 523.049H399.705L396.067 485.654H407.353L407.352 523.049Z" fill="#FFB8B8"/>
<path d="M394.243 520.279H408.991V532.051H384.957C384.957 528.929 385.936 525.935 387.677 523.727C389.418 521.519 391.78 520.279 394.243 520.279Z" fill="#2F2E41"/>
<path d="M445.4 523.049H437.753L434.116 485.654H445.402L445.4 523.049Z" fill="#FFB8B8"/>
<path d="M432.291 520.279H447.039V532.051H423.006C423.006 528.929 423.984 525.935 425.725 523.727C427.467 521.519 429.828 520.279 432.291 520.279Z" fill="#2F2E41"/>
<path d="M368.991 389.314C368.441 388.287 368.075 387.118 367.92 385.892C367.764 384.666 367.823 383.412 368.091 382.217C368.359 381.023 368.831 379.917 369.472 378.979C370.114 378.04 370.91 377.292 371.805 376.785L397.8 285.949L410.591 294.799L380.91 381.606C381.481 383.567 381.465 385.726 380.864 387.674C380.264 389.621 379.12 391.222 377.651 392.172C376.182 393.122 374.489 393.356 372.893 392.829C371.297 392.303 369.909 391.052 368.991 389.314Z" fill="#FFB8B8"/>
<path d="M441.494 406.383C440.645 405.765 439.912 404.919 439.348 403.903C438.784 402.887 438.403 401.727 438.231 400.505C438.059 399.282 438.1 398.027 438.352 396.826C438.604 395.626 439.061 394.511 439.69 393.559L431.637 297.469L446.194 298.312L449.541 392.829C450.732 394.274 451.464 396.224 451.598 398.308C451.732 400.392 451.258 402.466 450.266 404.137C449.274 405.808 447.833 406.959 446.217 407.373C444.6 407.787 442.92 407.435 441.494 406.383Z" fill="#FFB8B8"/>
<path d="M418.272 269.123C426.733 269.123 433.592 260.427 433.592 249.7C433.592 238.974 426.733 230.278 418.272 230.278C409.811 230.278 402.952 238.974 402.952 249.7C402.952 260.427 409.811 269.123 418.272 269.123Z" fill="#FFB8B8"/>
<path d="M441.397 384.529H395.21L395.266 384.073C395.349 383.392 403.497 315.717 397.488 293.577C396.884 291.401 396.938 289.02 397.636 286.891C398.335 284.762 399.631 283.035 401.273 282.045C409.863 276.916 426.353 270.601 440.27 285.927C442.318 288.219 443.917 291.084 444.941 294.295C445.965 297.506 446.386 300.975 446.17 304.428L441.397 384.529Z" fill="#CCCCCC"/>
<path d="M404.081 325.719L383.288 320.37L393.034 291.087C393.617 288.251 395.064 285.823 397.057 284.338C399.05 282.852 401.426 282.429 403.665 283.162C405.903 283.894 407.821 285.723 408.998 288.246C410.175 290.769 410.514 293.781 409.941 296.621L404.081 325.719Z" fill="#CCCCCC"/>
<path d="M430.712 335.649L429.462 299.319C428.514 292.489 431.598 286.033 436.341 284.978C441.084 283.926 445.716 288.663 446.669 295.543L451.367 329.49L430.712 335.649Z" fill="#CCCCCC"/>
<path d="M439.86 380.18C447.292 416.064 448.102 461.687 446.097 511.453L436.118 509.871L418.029 414.975L408.049 511.453L396.822 510.662C393.468 458.445 390.202 413.618 395.574 384.134L439.86 380.18Z" fill="#2F2E41"/>
<path d="M428.366 264.711C425.508 268.571 420.201 266.499 419.828 261.226C419.799 260.816 419.801 260.404 419.835 259.996C420.027 257.66 421.091 255.539 420.836 253.073C420.779 252.459 420.598 251.875 420.312 251.374C418.035 247.507 412.689 253.103 410.539 249.603C409.221 247.457 410.771 244.078 409.759 241.679C408.424 238.513 404.471 240.075 401.991 238.341C399.233 236.412 399.398 231.045 401.214 227.781C403.428 223.801 407.311 221.677 411.146 221.371C414.98 221.065 418.788 222.379 422.368 224.148C426.436 226.157 430.469 228.935 432.972 233.469C436.016 238.984 436.309 246.397 434.787 252.845C433.861 256.768 430.7 261.559 428.366 264.711Z" fill="#2F2E41"/>
<path d="M533.376 533H295.73C295.565 533 295.406 532.917 295.289 532.768C295.172 532.62 295.106 532.419 295.106 532.209C295.106 532 295.172 531.798 295.289 531.65C295.406 531.502 295.565 531.418 295.73 531.418H533.376C533.542 531.418 533.7 531.502 533.817 531.65C533.934 531.798 534 532 534 532.209C534 532.419 533.934 532.62 533.817 532.768C533.7 532.917 533.542 533 533.376 533Z" fill="#3F3D56"/>
</g>
<defs>
<clipPath id="clip0_4_457">
<rect width="534" height="533" fill="white"/>
</clipPath>
</defs>
</svg>
